<svg xmlns="http://www.w3.org/2000/svg" version="1.1" xmlns:xlink="http://www.w3.org/1999/xlink" width="1000" height="1000"><g clip-path="url(#SvgjsClipPath1045)"><rect width="1000" height="1000" fill="#aad4c8"></rect><g transform="matrix(1.1904761904761905,0,0,1.1904761904761905,0,190.47619047619048)"><svg xmlns="http://www.w3.org/2000/svg" version="1.1" xmlns:xlink="http://www.w3.org/1999/xlink" width="840" height="520"><svg version="1.1" xmlns="http://www.w3.org/2000/svg" xmlns:xlink="http://www.w3.org/1999/xlink" x="0px" y="0px" viewBox="140 300 840 520" xml:space="preserve">
<g id="Object">
	<g>
		<path style="fill:#82BFAB;" d="M785.21,754.794c-0.847,0.844-1.967,1.313-3.177,1.313h-34.696v57.482
			c0,14.141-11.487,25.621-25.618,25.621h69.332c14.162,0,25.631-11.48,25.631-25.621V308.41c0-14.147-11.469-25.621-25.631-25.621
			h-69.332c14.132,0,25.618,11.475,25.618,25.621v34.527h34.696c1.21,0,2.33,0.469,3.177,1.313c0.853,0.844,1.308,1.973,1.308,3.168
			v97.971c0,1.199-0.454,2.318-1.308,3.169c-0.847,0.844-1.967,1.313-3.177,1.313h-34.696v46.186h34.696
			c1.21,0,2.33,0.469,3.177,1.31c0.853,0.848,1.308,1.976,1.308,3.169v97.976c0,1.189-0.454,2.315-1.308,3.166
			c-0.847,0.841-1.967,1.31-3.177,1.31h-34.696v46.186h34.696c1.21,0,2.33,0.469,3.177,1.317c0.853,0.841,1.308,1.969,1.308,3.165
			v97.971C786.518,752.824,786.064,753.95,785.21,754.794z"></path>
		<path style="fill:#AAD4C8;" d="M747.337,342.937v106.934h34.696c1.21,0,2.33-0.469,3.177-1.313c0.853-0.85,1.308-1.97,1.308-3.169
			v-97.971c0-1.195-0.454-2.324-1.308-3.168c-0.847-0.844-1.967-1.313-3.177-1.313H747.337z"></path>
		<path style="fill:#AAD4C8;" d="M747.337,496.057v106.931h34.696c1.21,0,2.33-0.469,3.177-1.31c0.853-0.85,1.308-1.976,1.308-3.166
			v-97.976c0-1.192-0.454-2.321-1.308-3.169c-0.847-0.841-1.967-1.31-3.177-1.31H747.337z"></path>
		<path style="fill:#AAD4C8;" d="M747.337,649.174v106.934h34.696c1.21,0,2.33-0.469,3.177-1.313
			c0.853-0.844,1.308-1.97,1.308-3.168v-97.971c0-1.195-0.454-2.324-1.308-3.165c-0.847-0.848-1.967-1.317-3.177-1.317H747.337z"></path>
		<path style="fill:#616E7D;" d="M400.281,282.788h-11.063v556.423h11.063h321.437c14.132,0,25.618-11.48,25.618-25.621v-57.482
			V649.174v-46.186V496.057v-46.186V342.937V308.41c0-14.147-11.487-25.621-25.618-25.621H400.281z M707.102,515.748h-277.68
			v-15.212h277.68V515.748z M707.102,467.966h-277.68v-49.264h277.68V467.966z"></path>
		<path style="fill:#AAD4C8;" d="M305.319,308.41v505.18c0,14.141,11.469,25.621,25.606,25.621h1.549h56.744V282.788h-56.744h-1.549
			C316.787,282.788,305.319,294.263,305.319,308.41z"></path>
		<rect x="429.422" y="418.703" style="fill:#FFFFFF;" width="277.68" height="49.264"></rect>
		<rect x="429.422" y="500.536" style="fill:#FFFFFF;" width="277.68" height="15.212"></rect>
	</g>
</g>
</svg></svg></g></g><defs><clipPath id="SvgjsClipPath1045"><rect width="1000" height="1000" x="0" y="0" rx="350" ry="350"></rect></clipPath></defs></svg>